<?xml version="1.0" encoding="utf-8"?>
<!-- Generator: Adobe Illustrator 24.1.1, SVG Export Plug-In . SVG Version: 6.00 Build 0)  -->
<svg version="1.0" id="Layer_1" xmlns="http://www.w3.org/2000/svg" xmlns:xlink="http://www.w3.org/1999/xlink" x="0px" y="0px"
	 viewBox="0 0 65.43 42.25" style="enable-background:new 0 0 65.43 42.25;" xml:space="preserve">
<defs>
    <linearGradient id="grad1" x1="0%" y1="0%" x2="100%" y2="0%" gradientTransform="rotate(20)">
      <stop offset="0%" style="stop-color:rgba(108,63,251,1);stop-opacity:1" />
      <stop offset="100%" style="stop-color:rgba(70,252,242,1);stop-opacity:1" />
    </linearGradient>
  </defs>	 
<style type="text/css">
	.st0{fill:white;}
	.st1{fill:none;}
	.st2{fill:url(#grad1);}
	.st3{fill:url(#grad1);}
</style>
<path class="st0" d="M25.26,41.07C25.28,41.05,25.29,41.05,25.26,41.07L25.26,41.07z"/>
<path class="st0" d="M24.01,41.84C24.04,41.83,24.05,41.82,24.01,41.84L24.01,41.84z"/>
<g>
	<path class="st1" d="M32.1,20.17c-0.3-0.12-0.65,0-0.78,0.31c-0.37,0.84-0.73,1.68-1.1,2.51c-0.58,1.34-1.17,2.67-1.75,4.01
		c-0.13,0.31-0.27,0.61-0.4,0.92c-0.12,0.28,0.01,0.67,0.31,0.78c0.3,0.12,0.65,0,0.78-0.31c0.37-0.84,0.73-1.68,1.1-2.51
		c0.58-1.34,1.17-2.67,1.75-4.01c0.13-0.31,0.27-0.61,0.4-0.92C32.53,20.67,32.4,20.29,32.1,20.17z"/>
	<path class="st2" d="M25.59,40.09C25.61,40.08,25.62,40.08,25.59,40.09L25.59,40.09z"/>
	<path class="st0" d="M39.27,19.44c-0.02,0-0.05,0.01-0.05,0.01C39.24,19.45,39.26,19.44,39.27,19.44z"/>
	<path class="st0" d="M19.26,35.96c-0.02-0.08-0.05-0.15-0.07-0.22c-0.01-0.02-0.01-0.03-0.02-0.05l0-0.01
		c-0.02-0.04-0.04-0.1-0.05-0.12c-0.02-0.05-0.05-0.1-0.08-0.15c-0.02-0.04-0.05-0.08-0.07-0.12c-0.01-0.01-0.02-0.03-0.03-0.04
		c-0.03-0.05-0.06-0.09-0.1-0.13c-0.06-0.07-0.11-0.13-0.17-0.18c0,0-0.01-0.01-0.01-0.01l-0.04-0.04l-0.02-0.02l-0.21-0.21
		l-0.08-0.08l-1.75-1.75l-1.17-1.17l-2.89-2.89l-1.44-1.44l-1.31-1.31L7.15,23.4l-1.65-1.65l0.37-0.37l3-3l4.34-4.34l3.89-3.89
		l0.39-0.39l0.79-0.79l0.18-0.18l0.13-0.13l0.02-0.02l0.05-0.05l0.02-0.02c0.03-0.03,0.06-0.06,0.09-0.1
		c0.02-0.02,0.04-0.05,0.07-0.08l0.01-0.02c0.03-0.04,0.07-0.08,0.09-0.13l0.04-0.07c0.04-0.07,0.09-0.15,0.14-0.24
		c0.01-0.02,0.03-0.06,0.04-0.09c0-0.01,0.01-0.02,0.01-0.02l0-0.01c0.01-0.01,0.01-0.03,0.02-0.04l0-0.01
		c0.01-0.03,0.02-0.06,0.03-0.09c0.03-0.1,0.06-0.21,0.08-0.31c0-0.02,0.01-0.03,0.01-0.05c0-0.02,0.01-0.05,0.01-0.07l0-0.03
		c0-0.03,0-0.05,0.01-0.06c0-0.07,0.01-0.15,0-0.21c0-0.03,0-0.05,0-0.07c0-0.02,0-0.04,0-0.06c0-0.03,0-0.07,0-0.1c0,0,0,0,0,0
		c0,0,0,0,0,0c0-0.02,0-0.03-0.01-0.05c0,0,0,0,0,0c0,0,0,0,0,0c0-0.02-0.01-0.03-0.01-0.05c0-0.01,0-0.02-0.01-0.03
		C19.31,6.55,19.3,6.52,19.3,6.5l0-0.01c-0.02-0.11-0.06-0.23-0.1-0.34c-0.01-0.02-0.03-0.07-0.04-0.09c0-0.01-0.01-0.02-0.01-0.03
		l-0.01-0.01c-0.02-0.03-0.03-0.07-0.05-0.1c-0.05-0.1-0.11-0.19-0.16-0.26c-0.01-0.01-0.02-0.02-0.02-0.03L18.9,5.6
		c-0.03-0.04-0.07-0.1-0.09-0.11c-0.04-0.04-0.08-0.08-0.12-0.13c-0.07-0.07-0.15-0.14-0.23-0.21c-0.03-0.03-0.07-0.05-0.11-0.07
		c-0.01-0.01-0.02-0.01-0.03-0.02c-0.05-0.03-0.09-0.06-0.11-0.07c-0.05-0.03-0.11-0.06-0.16-0.09l-0.04-0.02
		c-0.04-0.02-0.09-0.04-0.13-0.05c0,0,0,0,0,0c-0.02-0.01-0.04-0.01-0.07-0.02c-0.07-0.02-0.14-0.05-0.23-0.07
		c-0.04-0.01-0.08-0.02-0.12-0.03l-0.01,0c-0.04-0.01-0.09-0.02-0.13-0.03c-0.05-0.01-0.11-0.01-0.17-0.01c-0.05,0-0.09,0-0.13,0
		l-0.03,0c-0.05,0-0.09,0-0.14,0.01l-0.03,0c-0.04,0-0.11,0.01-0.15,0.02L16.64,4.7c-0.07,0.02-0.15,0.03-0.24,0.06
		c-0.04,0.01-0.07,0.02-0.11,0.04l-0.04,0.01c-0.04,0.01-0.09,0.03-0.13,0.05c-0.09,0.05-0.18,0.09-0.28,0.15
		c-0.01,0.01-0.03,0.02-0.06,0.04c-0.01,0.01-0.02,0.01-0.03,0.02l-0.02,0.01c0,0,0,0-0.01,0c-0.03,0.02-0.06,0.04-0.09,0.07
		c0,0,0,0,0,0c0,0,0,0,0,0c-0.02,0.02-0.03,0.03-0.05,0.04c-0.05,0.04-0.1,0.09-0.15,0.14c0,0-0.01,0.01-0.01,0.01
		c-0.04,0.04-0.08,0.08-0.12,0.12l-0.06,0.06l-2.43,2.43l-2.46,2.46l-1.64,1.64l-4.31,4.31l-3.1,3.1l-0.21,0.21
		c-0.14,0.14-0.28,0.28-0.42,0.42l-0.01,0.01l-0.03,0.03c-0.03,0.04-0.07,0.07-0.1,0.11c-0.01,0.01-0.03,0.04-0.06,0.07l-0.02,0.03
		c-0.02,0.03-0.05,0.07-0.07,0.1c-0.06,0.09-0.11,0.18-0.16,0.27c-0.02,0.03-0.03,0.06-0.05,0.09L0.19,20.8
		c-0.01,0.03-0.02,0.05-0.03,0.08l-0.01,0.04c-0.01,0.03-0.02,0.06-0.02,0.07c-0.04,0.12-0.06,0.22-0.08,0.32l0,0.01
		c0,0.01-0.01,0.03-0.01,0.04l0,0.02c0,0.02-0.01,0.04-0.01,0.06c0,0.04-0.01,0.07-0.01,0.1C0,21.6,0,21.66,0,21.72
		c0,0.08,0,0.16,0.01,0.24c0,0.04,0.01,0.12,0.02,0.16l0,0.02c0.01,0.04,0.01,0.08,0.02,0.09c0.01,0.05,0.02,0.09,0.03,0.14
		c0.01,0.04,0.03,0.09,0.04,0.13c0.01,0.02,0.01,0.03,0.01,0.05c0.01,0.06,0.04,0.12,0.06,0.17c0.07,0.14,0.14,0.26,0.2,0.36
		c0.03,0.06,0.07,0.11,0.12,0.16l0.03,0.03c0.02,0.02,0.04,0.05,0.06,0.07c0.02,0.02,0.03,0.03,0.05,0.05l0.01,0.01
		c0.38,0.39,0.77,0.78,1.15,1.15c0.19,0.19,0.38,0.38,0.57,0.57l1.69,1.69l2.11,2.11l2.93,2.93l1.47,1.47l1.34,1.34l2.23,2.23
		l0.55,0.55l0.46,0.46l0.08,0.08l0.16,0.16l0.01,0.01l0.03,0.03c0.04,0.04,0.07,0.07,0.11,0.11c0.02,0.02,0.04,0.04,0.07,0.06
		l0.01,0.01c0.03,0.02,0.05,0.04,0.08,0.06c0.01,0.01,0.03,0.02,0.04,0.03c0.03,0.02,0.05,0.03,0.05,0.03
		c0.06,0.04,0.13,0.08,0.2,0.12c0.01,0,0.01,0.01,0.02,0.01l0.06,0.03c0.02,0.01,0.05,0.02,0.08,0.03c0.01,0,0.02,0.01,0.03,0.01
		c0.01,0,0.02,0.01,0.02,0.01c0.02,0.01,0.04,0.02,0.06,0.02c0.07,0.02,0.14,0.05,0.22,0.07c0.05,0.01,0.1,0.02,0.15,0.03l0.04,0.01
		c0.06,0.01,0.12,0.02,0.18,0.02c0,0,0,0,0.01,0l0.07,0c0.05,0,0.1,0,0.16,0c0.05,0,0.1,0,0.15,0c0.01,0,0.02,0,0.04,0
		c0.01,0,0.03,0,0.05,0l0.02,0c0.02,0,0.04,0,0.05-0.01c0.06-0.01,0.11-0.02,0.16-0.03c0.11-0.02,0.21-0.06,0.35-0.1
		c0.01,0,0.01,0,0.02-0.01c0.02-0.01,0.04-0.02,0.05-0.02c0.05-0.02,0.09-0.04,0.14-0.07c0.06-0.03,0.11-0.06,0.17-0.1
		c0.03-0.02,0.07-0.04,0.1-0.07c0.06-0.04,0.13-0.1,0.17-0.16c-0.05,0.06-0.09,0.1-0.11,0.11l0.04-0.03
		c0.04-0.03,0.07-0.05,0.07-0.06c0.09-0.08,0.18-0.17,0.26-0.26c0.01-0.02,0.05-0.07,0.08-0.11l0,0l0.02-0.03
		c0.03-0.04,0.05-0.07,0.07-0.11c0.02-0.04,0.05-0.08,0.07-0.12c0.01-0.01,0.02-0.03,0.02-0.05c0.01-0.03,0.03-0.05,0.04-0.08
		c0,0,0,0,0-0.01c0-0.01,0.01-0.01,0.01-0.02c0.02-0.04,0.03-0.08,0.05-0.12l0-0.01c0,0,0,0,0,0l0.01-0.02
		c0.01-0.02,0.01-0.03,0.02-0.04c0.01-0.04,0.03-0.08,0.03-0.09l0.01-0.04c0.02-0.07,0.05-0.18,0.07-0.29
		c0.01-0.04,0.01-0.09,0.01-0.13l0-0.02c0-0.04,0-0.08,0.01-0.12l0-0.03c0.01-0.11,0.02-0.29-0.04-0.47
		C19.29,36.06,19.28,36.01,19.26,35.96z"/>
	<path class="st0" d="M65.43,21.51c0-0.03,0-0.06-0.01-0.09c0-0.02-0.01-0.05-0.01-0.07l0-0.03c0-0.02-0.01-0.04-0.01-0.06
		c0-0.01-0.01-0.03-0.01-0.04c-0.01-0.03-0.01-0.07-0.02-0.1c-0.02-0.06-0.03-0.12-0.05-0.18c0-0.01-0.01-0.04-0.02-0.07l-0.01-0.04
		c-0.01-0.03-0.03-0.08-0.05-0.11c-0.04-0.08-0.08-0.17-0.13-0.24c-0.03-0.05-0.06-0.09-0.09-0.14c-0.02-0.03-0.05-0.07-0.08-0.1
		c0.01,0.01,0.02,0.02,0.03,0.04l-0.03-0.03c-0.03-0.04-0.05-0.07-0.06-0.07c-0.04-0.05-0.08-0.09-0.13-0.13
		c-0.41-0.42-0.83-0.83-1.25-1.25l-0.62-0.62L59,14.32l-4.39-4.39l-3.48-3.48l-0.47-0.47L50.2,5.52l-0.06-0.06l-0.13-0.13
		c-0.07-0.07-0.14-0.13-0.21-0.19c-0.03-0.02-0.06-0.04-0.09-0.06l-0.04-0.02C49.64,5.02,49.61,5,49.59,4.99
		c-0.06-0.03-0.11-0.07-0.17-0.1c-0.02-0.01-0.04-0.02-0.07-0.03l-0.02-0.01c-0.04-0.02-0.09-0.05-0.14-0.06l-0.06-0.02
		c-0.07-0.02-0.16-0.05-0.25-0.07c-0.03-0.01-0.06-0.01-0.09-0.02l-0.04-0.01c-0.04-0.01-0.11-0.02-0.16-0.02l-0.04,0
		c-0.07,0-0.13-0.01-0.2-0.01c-0.03,0-0.07,0-0.1,0l-0.01,0c-0.05,0-0.1,0-0.14,0.01c0,0,0,0,0,0c0,0,0,0,0,0
		c-0.02,0-0.04,0.01-0.06,0.01c-0.02,0-0.04,0.01-0.06,0.01c-0.1,0.02-0.21,0.05-0.31,0.08c-0.04,0.01-0.09,0.03-0.13,0.05
		l-0.02,0.01c-0.02,0.01-0.04,0.02-0.06,0.02c-0.01,0-0.02,0.01-0.03,0.01c-0.1,0.05-0.22,0.12-0.35,0.2
		c-0.01,0.01-0.03,0.02-0.05,0.04l-0.01,0.01c-0.02,0.01-0.03,0.02-0.05,0.04l-0.01,0.01c-0.03,0.03-0.06,0.05-0.09,0.08
		c-0.08,0.08-0.16,0.16-0.24,0.24c0,0-0.01,0.01-0.01,0.01c-0.01,0.02-0.03,0.03-0.04,0.05c-0.01,0.01-0.02,0.03-0.03,0.04
		c0,0,0,0,0,0L46.52,5.6c-0.03,0.04-0.05,0.07-0.07,0.11c-0.05,0.08-0.1,0.17-0.15,0.28c-0.02,0.04-0.03,0.08-0.05,0.12l-0.01,0.02
		c0,0,0,0.01,0,0.01c-0.02,0.05-0.04,0.11-0.05,0.13c0,0,0,0,0,0l-0.01,0.04c-0.02,0.07-0.05,0.17-0.07,0.29
		C46.1,6.64,46.1,6.68,46.1,6.73l0,0.02c0,0.04,0,0.08-0.01,0.12l0,0.03C46.08,7,46.08,7.18,46.13,7.37
		c0.01,0.05,0.02,0.1,0.04,0.15c0.02,0.08,0.05,0.15,0.07,0.22c0.01,0.02,0.01,0.03,0.02,0.05l0,0.01c0.01,0.02,0.01,0.03,0.02,0.05
		c0.01,0.03,0.02,0.06,0.03,0.07c0.02,0.05,0.05,0.1,0.08,0.15c0.02,0.04,0.05,0.08,0.07,0.12c0.01,0.01,0.02,0.03,0.03,0.04
		c0.03,0.05,0.06,0.09,0.1,0.13c0.06,0.07,0.11,0.13,0.17,0.18c0,0,0.01,0.01,0.01,0.01l0.04,0.04l0.02,0.02l0.1,0.1l0.2,0.2
		l1.46,1.46l1.46,1.46l1.24,1.24l3.09,3.09l3.92,3.92l1.15,1.15l0.5,0.5l-0.37,0.37l-1.5,1.5l-1.5,1.5l-2.89,2.89l-1.45,1.45
		l-1.94,1.94l-1.94,1.94l-1.18,1.18l-0.31,0.31l-0.02,0.02l-0.05,0.05l-0.02,0.02c-0.03,0.03-0.06,0.06-0.09,0.1
		c-0.02,0.02-0.04,0.05-0.07,0.07l-0.01,0.02c-0.03,0.04-0.07,0.08-0.09,0.13l-0.04,0.07c-0.04,0.07-0.09,0.15-0.14,0.24
		c-0.01,0.02-0.03,0.08-0.05,0.12l0,0l0,0.01c-0.01,0.01-0.01,0.03-0.02,0.04l-0.01,0.01c-0.01,0.03-0.02,0.06-0.03,0.09
		c-0.03,0.1-0.06,0.21-0.08,0.31c0,0.02-0.01,0.03-0.01,0.05c0,0.02-0.01,0.05-0.01,0.07l0,0.03c0,0.03,0,0.05-0.01,0.06
		c0,0.08-0.01,0.15,0,0.21c0,0.03,0,0.05,0,0.07c0,0.02,0,0.04,0,0.06c0,0.03,0,0.06,0,0.09c0,0,0,0,0,0c0,0,0,0,0,0v0c0,0,0,0,0,0
		c0,0,0,0,0,0c0,0.01,0,0.03,0,0.04c0,0,0,0,0,0c0,0,0,0,0,0c0,0.02,0.01,0.03,0.01,0.05c0,0.01,0,0.02,0.01,0.03
		c0.01,0.02,0.01,0.05,0.02,0.07l0,0.01c0.02,0.11,0.06,0.23,0.1,0.34c0.01,0.02,0.03,0.07,0.04,0.09c0,0.01,0.01,0.02,0.01,0.03
		l0.01,0.01c0.02,0.03,0.03,0.07,0.05,0.1c0.05,0.1,0.11,0.19,0.16,0.26c0.01,0.01,0.02,0.02,0.02,0.03l0.01,0.01
		c0.03,0.04,0.07,0.1,0.09,0.11c0.04,0.04,0.08,0.08,0.12,0.13c0.05,0.05,0.09,0.09,0.14,0.13c0.01,0,0.03,0.03,0.07,0.06l0.03,0.03
		c0.02,0.02,0.04,0.03,0.06,0.05c0.1,0.07,0.19,0.12,0.28,0.17c0.05,0.02,0.09,0.05,0.14,0.07c0.01,0.01,0.03,0.01,0.04,0.02
		c0.01,0,0.02,0.01,0.03,0.01l0.03,0.01c0.05,0.02,0.09,0.03,0.14,0.05c0.1,0.03,0.19,0.05,0.3,0.07c0.03,0.01,0.08,0.01,0.11,0.02
		l0.04,0c0.04,0,0.07,0.01,0.08,0.01c0.05,0,0.1,0,0.15,0c0.05,0,0.09,0,0.14,0c0.02,0,0.03,0,0.05,0c0,0,0,0,0,0
		c0.05,0,0.12-0.01,0.17-0.02c0.12-0.03,0.27-0.06,0.43-0.11c0.01,0,0.04-0.02,0.08-0.03c0.01,0,0.01-0.01,0.02-0.01
		c0.03-0.01,0.05-0.02,0.08-0.03l-0.16-0.33c0,0,0,0,0.01,0l0.17,0.33c0.03-0.01,0.05-0.03,0.08-0.04c0.07-0.04,0.13-0.08,0.2-0.12
		c0,0,0.03-0.02,0.05-0.04c0.01-0.01,0.03-0.02,0.04-0.03c0.03-0.02,0.04-0.03,0.07-0.05c0.07-0.06,0.13-0.12,0.19-0.17l0.03-0.03
		l0.01-0.01l0.15-0.15l0.07-0.07l2.56-2.56l3.45-3.45l0.69-0.69l1.9-1.9l2.38-2.38l2.99-2.99l0.18-0.18
		c0.12-0.12,0.24-0.24,0.36-0.36l0.01-0.01c0.04-0.04,0.08-0.08,0.12-0.13l0.04-0.04c0.04-0.04,0.07-0.09,0.1-0.13l0.01-0.01
		c0.01-0.01,0.02-0.03,0.03-0.04c0.03-0.04,0.05-0.08,0.07-0.12c0.03-0.05,0.05-0.1,0.08-0.15l0.02-0.03
		c0.03-0.05,0.06-0.12,0.07-0.18l0.02-0.07c0.03-0.08,0.05-0.18,0.08-0.29c0-0.02,0.01-0.06,0.02-0.09l0-0.01
		c0-0.02,0-0.03,0.01-0.05c0.01-0.06,0.01-0.11,0.01-0.16C65.44,21.74,65.44,21.63,65.43,21.51z"/>
	<path class="st0" d="M41.8,4.73c-0.87-0.38-1.74-0.76-2.61-1.14c-0.54-0.24-1.08-0.47-1.62-0.71c-0.37,0.84-0.74,1.68-1.1,2.53
		c-0.67,1.54-1.34,3.07-2.01,4.61c-0.43,0.99-0.86,1.97-1.29,2.96c0,0.01-0.01,0.01-0.01,0.02c0.17,0.08,0.35,0.15,0.52,0.23
		c1.02,0.45,2.04,0.89,3.06,1.34c0.22,0.1,0.44,0.19,0.65,0.29c0.36,0.16,0.73,0.32,1.09,0.48c0.06-0.15,0.13-0.29,0.19-0.44
		c0.53-1.21,1.06-2.43,1.59-3.64c0.67-1.52,1.33-3.04,2-4.57c0.21-0.49,0.43-0.98,0.64-1.46c-0.08-0.04-0.16-0.07-0.25-0.11
		C42.36,4.98,42.08,4.85,41.8,4.73z"/>
	<path class="st0" d="M43.6,2.52c-0.01-0.07-0.02-0.14-0.04-0.21c-0.01-0.03-0.01-0.07-0.02-0.1c-0.04-0.13-0.08-0.26-0.13-0.39
		c-0.03-0.07-0.06-0.15-0.1-0.22c-0.01-0.03-0.03-0.05-0.04-0.08c0,0,0-0.01,0-0.01c0,0,0-0.01-0.01-0.01
		c-0.01-0.01-0.02-0.03-0.03-0.04c0,0,0,0,0,0c0.04,0.08,0.08,0.15,0.11,0.23c0.06,0.14,0.11,0.27,0.15,0.41
		c0.01,0.04,0.02,0.07,0.03,0.11c0.02,0.08,0.03,0.15,0.04,0.23c0.02,0.15,0.03,0.29,0.04,0.44c0,0.01,0,0.01,0,0.02
		c0,0.02,0,0.05,0,0.07c0,0.09-0.01,0.19-0.02,0.28c-0.02,0.14-0.04,0.28-0.07,0.42c0,0.01-0.02,0.08-0.02,0.09
		c0,0.01-0.01,0.02-0.01,0.02c-0.03,0.08-0.06,0.17-0.09,0.25c-0.01,0.03-0.02,0.05-0.03,0.08c0,0,0,0,0,0c0,0,0-0.01,0-0.01
		c0.01-0.03,0.03-0.06,0.04-0.1c0.03-0.08,0.06-0.16,0.09-0.24c0,0,0-0.01,0.01-0.02c0-0.01,0.02-0.08,0.02-0.08
		c0.03-0.13,0.06-0.26,0.07-0.39c0.01-0.09,0.02-0.17,0.02-0.26c0-0.02,0-0.05,0-0.07c0-0.01,0-0.01,0-0.02
		C43.63,2.79,43.62,2.65,43.6,2.52z"/>
	<path class="st0" d="M43.62,2.89c-0.01-0.15-0.02-0.29-0.04-0.44c-0.01-0.08-0.03-0.15-0.04-0.23c-0.01-0.04-0.02-0.07-0.03-0.11
		c-0.05-0.14-0.09-0.28-0.15-0.41c-0.03-0.08-0.07-0.16-0.11-0.23c0,0,0,0,0,0c-0.06-0.1-0.12-0.19-0.19-0.28
		c-0.05-0.06-0.1-0.13-0.15-0.19c-0.02-0.03-0.05-0.05-0.07-0.08c-0.03-0.03-0.03-0.04-0.03-0.03c-0.08-0.09-0.19-0.17-0.28-0.25
		c-0.06-0.05-0.12-0.09-0.18-0.13c-0.03-0.02-0.06-0.04-0.09-0.06c0,0-0.01,0-0.02-0.01c-0.08-0.03-0.31-0.17-0.34-0.18
		c-0.07-0.03-0.14-0.06-0.21-0.09c-0.03-0.01-0.06-0.02-0.09-0.03c0,0-0.01,0-0.02-0.01c-0.01,0-0.08-0.02-0.08-0.02
		c0,0-0.01,0-0.01,0c-0.02-0.01-0.05-0.01-0.07-0.02c-0.07-0.02-0.15-0.03-0.22-0.04C41.05,0.02,40.89-0.01,40.76,0
		c-0.01,0-0.02,0-0.03,0c-0.04,0-0.07,0-0.11,0c-0.06,0-0.13,0.01-0.19,0.01c-0.14,0.02-0.29,0.04-0.43,0.07
		c-0.03,0.01-0.07,0.02-0.1,0.03c-0.06,0.02-0.12,0.04-0.18,0.06c-0.13,0.05-0.26,0.11-0.39,0.17c0,0-0.01,0-0.01,0
		c0,0-0.01,0-0.01,0.01c-0.02,0.02-0.05,0.03-0.07,0.04c-0.06,0.04-0.12,0.08-0.18,0.12c-0.12,0.08-0.23,0.18-0.34,0.27
		c-0.01,0.01-0.02,0.02-0.02,0.02c-0.02,0.02-0.04,0.04-0.05,0.06c-0.05,0.05-0.09,0.1-0.13,0.15c-0.1,0.11-0.18,0.23-0.26,0.36
		c0,0,0,0,0,0c0,0,0,0-0.01,0.01c0,0,0,0.01-0.01,0.01c-0.02,0.03-0.02,0.04-0.02,0.03c-0.01,0.01-0.02,0.03-0.02,0.03
		c-0.04,0.07-0.07,0.13-0.1,0.2c-0.02,0.04-0.04,0.08-0.05,0.12c0,0,0,0.01,0,0.01c0.08,0.04,0.16,0.07,0.24,0.11
		c1.15,0.5,2.3,1.01,3.45,1.51c0.18,0.08,0.36,0.16,0.54,0.24C42.64,3.8,43,3.96,43.36,4.12c0.01-0.03,0.02-0.05,0.03-0.08
		c0.03-0.08,0.06-0.17,0.09-0.25c0,0,0-0.01,0.01-0.02c0-0.01,0.02-0.08,0.02-0.09c0.03-0.14,0.06-0.28,0.07-0.42
		c0.01-0.09,0.02-0.19,0.02-0.28c0-0.02,0-0.05,0-0.07C43.62,2.9,43.62,2.89,43.62,2.89z"/>
	<path class="st0" d="M30.63,13.63c0,0,0.03-0.02,0.04-0.03C30.65,13.61,30.64,13.62,30.63,13.63z"/>
	<path class="st0" d="M30.86,13.53c0.02,0,0.05-0.01,0.05-0.01C30.9,13.52,30.88,13.52,30.86,13.53z"/>
	<path class="st3" d="M39.86,19.15c-0.02,0-0.05,0.01-0.04,0.01C39.82,19.16,39.84,19.16,39.86,19.15z"/>
	<path class="st0" d="M40.57,18.03c0-0.02,0-0.05-0.01-0.07c0,0,0-0.01-0.01-0.01c-0.01-0.02-0.01-0.04-0.02-0.06
		c-0.02-0.05-0.04-0.11-0.06-0.16c0-0.01,0-0.01,0-0.01c0,0,0,0,0,0c-0.05-0.07-0.1-0.14-0.15-0.21c0,0,0-0.01-0.01-0.01
		c-0.01-0.01-0.02-0.01-0.02-0.02c-0.03-0.03-0.07-0.06-0.1-0.08c-0.01-0.01-0.04-0.03-0.06-0.05c0,0-0.01,0-0.01,0
		c-0.03-0.01-0.05-0.03-0.08-0.04c-0.04-0.02-0.08-0.04-0.12-0.06c-0.58-0.26-1.17-0.51-1.75-0.77c-0.99-0.43-1.97-0.86-2.96-1.29
		c-0.89-0.39-1.79-0.78-2.68-1.17c-0.27-0.12-0.53-0.23-0.8-0.35c-0.06-0.03-0.12-0.05-0.18-0.08c-0.01,0-0.02-0.01-0.02-0.01
		c-0.04-0.02-0.08-0.03-0.12-0.05c-0.02,0-0.04-0.01-0.05-0.01c-0.04-0.01-0.09-0.02-0.13-0.02c-0.01,0-0.03,0-0.06-0.01
		c-0.02,0-0.09,0-0.11,0c-0.04,0-0.09,0.01-0.13,0.02c-0.02,0-0.04,0.01-0.06,0.01c-0.01,0-0.01,0-0.01,0
		c-0.03,0.01-0.06,0.03-0.08,0.04c-0.02,0.01-0.05,0.02-0.08,0.03c0,0-0.01,0.01-0.01,0.01c-0.02,0.01-0.04,0.02-0.05,0.03
		c-0.05,0.03-0.12,0.07-0.17,0.12c0.01-0.01,0.01,0-0.02,0.03c-0.01,0.02-0.03,0.03-0.04,0.05c-0.03,0.03-0.06,0.07-0.08,0.1
		c0,0.01-0.01,0.02-0.02,0.03c0,0,0,0,0,0c-0.02,0.04-0.04,0.08-0.06,0.12c-0.02,0.03-0.03,0.07-0.04,0.11c0,0,0,0.01-0.01,0.03
		c-0.01,0.08-0.02,0.17-0.04,0.25c0,0.01,0,0.03,0,0.04c0,0.05,0.01,0.1,0.02,0.15c0,0.02,0.02,0.08,0.02,0.09
		c0.01,0.02,0.01,0.04,0.02,0.05c0.02,0.05,0.04,0.09,0.06,0.14c0,0.01,0,0.01,0,0.01c0,0,0,0,0,0c0.05,0.07,0.1,0.14,0.15,0.21
		c0.02,0.01,0.03,0.03,0.05,0.04c0.03,0.03,0.07,0.06,0.1,0.08c0.01,0.01,0.02,0.01,0.03,0.02c0.03,0.01,0.09,0.05,0.1,0.06
		c0.02,0.01,0.04,0.02,0.06,0.03c0.5,0.22,1,0.44,1.51,0.66c0.96,0.42,1.92,0.84,2.89,1.26c0.93,0.41,1.86,0.81,2.79,1.22
		c0.42,0.18,0.84,0.37,1.26,0.55c0.04,0.02,0.08,0.03,0.12,0.05c0.02,0,0.04,0.01,0.05,0.01c0.04,0.01,0.09,0.02,0.13,0.02
		c0.02,0,0.04,0,0.07,0.01c0.02,0,0.04,0,0.04,0.01c0.06,0,0.14-0.02,0.19-0.03c0.02,0,0.04-0.01,0.06-0.01c0.01,0,0.01,0,0.01,0
		c0.02-0.01,0.05-0.02,0.06-0.03c0.05-0.02,0.09-0.04,0.14-0.06c0,0,0,0,0,0c0,0,0.01-0.01,0.01-0.01c0.05-0.03,0.13-0.08,0.18-0.13
		c-0.01,0,0,0,0.02-0.03c0.01-0.02,0.03-0.03,0.04-0.05c0.03-0.03,0.06-0.07,0.08-0.1c0,0,0.02-0.02,0.03-0.04
		c0.02-0.03,0.03-0.06,0.05-0.1c0.02-0.03,0.03-0.07,0.04-0.11c0.01-0.01,0.01-0.03,0.01-0.04c0.01-0.08,0.02-0.17,0.04-0.26
		c0-0.01,0-0.03,0-0.04C40.58,18.12,40.58,18.07,40.57,18.03z"/>
	<path class="st0" d="M36.55,19.23c-0.98-0.43-1.96-0.86-2.94-1.29c-0.74-0.32-1.48-0.65-2.22-0.97c-0.08,0.18-0.16,0.37-0.24,0.55
		c-0.09,0.21-0.19,0.43-0.28,0.64c-0.23,0.52-0.46,1.05-0.69,1.57c-0.45,1.03-0.9,2.06-1.35,3.09c-0.53,1.21-1.06,2.43-1.59,3.64
		c-0.57,1.31-1.14,2.62-1.71,3.92c-0.56,1.29-1.13,2.58-1.69,3.87c-0.52,1.18-1.03,2.37-1.55,3.55c-0.42,0.97-0.84,1.93-1.27,2.9
		c-0.03,0.06-0.06,0.13-0.08,0.19c-0.2,0.45-0.39,0.9-0.59,1.35c0.44-0.14,0.87-0.28,1.3-0.43c0.65-0.23,1.3-0.48,1.94-0.76
		c0.35-0.15,0.7-0.31,1.05-0.48c0.18-0.09,0.35-0.17,0.53-0.26c0.08-0.04,0.17-0.09,0.25-0.13c0.05-0.02,0.09-0.05,0.14-0.07
		c0.01-0.01,0.02-0.01,0.03-0.02c0.68-0.38,1.33-0.79,1.95-1.26c0.15-0.12,0.3-0.23,0.45-0.36c0.07-0.06,0.15-0.13,0.22-0.19
		c0.03-0.03,0.06-0.06,0.09-0.08c0.02-0.02,0.12-0.12,0.06-0.06c-0.06,0.06,0.04-0.04,0.06-0.06c0.03-0.03,0.07-0.07,0.1-0.1
		c0.06-0.06,0.12-0.13,0.18-0.19c0.12-0.13,0.23-0.26,0.33-0.39c0.66-0.84,1.24-1.75,1.8-2.66c0.02-0.04,0.04-0.07,0.06-0.11
		c0,0,0,0,0-0.01c0.03-0.05,0.06-0.1,0.09-0.15c0.06-0.11,0.13-0.21,0.19-0.32c0.12-0.21,0.25-0.42,0.37-0.64
		c0.21-0.38,0.42-0.76,0.62-1.15c0.41-0.8,0.8-1.61,1.15-2.44c0.16-0.37,0.32-0.74,0.48-1.1c0.39-0.89,0.78-1.78,1.16-2.66
		c0.46-1.06,0.93-2.12,1.39-3.19c0.39-0.89,0.78-1.78,1.17-2.67c0.08-0.19,0.16-0.37,0.24-0.56c-0.35-0.15-0.69-0.3-1.04-0.45
		C36.66,19.28,36.6,19.26,36.55,19.23z M32.41,20.95c-0.13,0.31-0.27,0.61-0.4,0.92c-0.58,1.34-1.17,2.67-1.75,4.01
		c-0.37,0.84-0.73,1.68-1.1,2.51c-0.13,0.31-0.48,0.42-0.78,0.31c-0.3-0.12-0.43-0.5-0.31-0.78c0.13-0.31,0.27-0.61,0.4-0.92
		c0.58-1.34,1.17-2.67,1.75-4.01c0.37-0.84,0.73-1.68,1.1-2.51c0.13-0.31,0.48-0.42,0.78-0.31C32.4,20.29,32.53,20.67,32.41,20.95z"
		/>
</g>
</svg>
